<svg width="18" height="20" viewBox="0 0 18 20" fill="none" xmlns="http://www.w3.org/2000/svg">
<g clip-path="url(#clip0_3_87)">
<path d="M15.75 8.33334C15.75 14.1667 9 19.1667 9 19.1667C9 19.1667 2.25 14.1667 2.25 8.33334C2.25 6.34422 2.96116 4.43657 4.22703 3.03004C5.4929 1.62352 7.20979 0.833344 9 0.833344C10.7902 0.833344 12.5071 1.62352 13.773 3.03004C15.0388 4.43657 15.75 6.34422 15.75 8.33334Z" stroke="#6D67E4" stroke-width="2" stroke-linecap="round" stroke-linejoin="round"/>
<path d="M9 10.8333C10.2426 10.8333 11.25 9.71406 11.25 8.33334C11.25 6.95263 10.2426 5.83334 9 5.83334C7.75736 5.83334 6.75 6.95263 6.75 8.33334C6.75 9.71406 7.75736 10.8333 9 10.8333Z" stroke="#6D67E4" stroke-width="2" stroke-linecap="round" stroke-linejoin="round"/>
</g>
<defs>
<clipPath id="clip0_3_87">
<rect width="18" height="20" fill="white"/>
</clipPath>
</defs>
</svg>
