<svg width="18" height="20" viewBox="0 0 18 20" fill="none" xmlns="http://www.w3.org/2000/svg">
<path d="M16.0119 14.7087L15.5936 16.9397C15.5557 17.147 15.472 17.3445 15.3481 17.5196C15.2241 17.6947 15.0625 17.8436 14.8737 17.9566C14.6848 18.0697 14.4729 18.1444 14.2515 18.1761C14.03 18.2078 13.8039 18.1957 13.5877 18.1407C11.1964 17.4877 9.0012 16.3174 7.17852 14.7237C5.47835 13.2644 4.14103 11.4719 3.26151 9.47333C2.2863 7.31119 1.86716 4.96415 2.03805 2.62234C2.05681 2.41341 2.1217 2.21046 2.2286 2.02642C2.3355 1.84238 2.48207 1.68127 2.65897 1.55336C2.83586 1.42546 3.03921 1.33355 3.25608 1.28349C3.47294 1.23343 3.69856 1.22632 3.91857 1.2626L6.29533 1.65677C6.68049 1.71698 7.02927 1.9066 7.27668 2.19029C7.52408 2.47397 7.65323 2.83237 7.64004 3.19866C7.60651 3.92927 7.66113 4.66116 7.80285 5.38035C7.85954 5.66421 7.82838 5.95731 7.71306 6.22494C7.59773 6.49257 7.40308 6.7235 7.15216 6.89037L5.96894 7.66797C6.74772 9.71682 8.10098 11.5307 9.88595 12.9183L11.0692 12.1407C11.3221 11.9765 11.6198 11.8838 11.9272 11.8736C12.2346 11.8635 12.5388 11.9362 12.8036 12.0833C13.4752 12.4543 14.1892 12.7528 14.9322 12.9731C15.3075 13.0879 15.6249 13.3281 15.8239 13.6481C16.023 13.9682 16.0899 14.3456 16.0119 14.7087Z" stroke="#6D67E4" stroke-width="2" stroke-linecap="round" stroke-linejoin="round"/>
</svg>
