<svg width="80" height="63" viewBox="0 0 80 63" fill="none" xmlns="http://www.w3.org/2000/svg">
<path d="M79.5506 31.0254C79.5506 22.797 76.198 14.9055 70.2304 9.08712C64.2628 3.26874 56.1691 1.07903e-06 47.7297 0C39.2903 -1.07903e-06 31.1966 3.26874 25.229 9.08712C19.2614 14.9055 15.9088 22.797 15.9088 31.0254H25.853C29.1482 31.0254 31.718 28.333 32.925 25.3434C33.7174 23.3806 34.9199 21.5768 36.4792 20.0562C39.463 17.147 43.51 15.5127 47.7297 15.5127C51.9494 15.5127 55.9964 17.147 58.9802 20.0562C61.964 22.9654 63.6401 26.9112 63.6401 31.0254H79.5506Z" fill="url(#paint0_linear_2_62)"/>
<path d="M61.2195 42.8982C62.8186 39.134 63.6418 35.0996 63.6418 31.0254H79.5505C79.5505 48.1602 65.3038 62.0506 47.7296 62.0506C44.9774 62.0506 42.3066 61.71 39.7598 61.0696C41.2008 60.7076 42.6172 60.2466 43.9981 59.689C47.8588 58.1298 51.3667 55.8446 54.3216 52.9636C57.2765 50.0826 59.6205 46.6624 61.2195 42.8982Z" fill="#F2F7A1"/>
<path d="M0 31.0251C-5.97811e-07 35.0995 0.823071 39.1339 2.42222 42.8981C4.02137 46.6623 6.36527 50.0825 9.32012 52.9635C12.275 55.8443 15.7829 58.1297 19.6435 59.6889C23.5042 61.2481 27.642 62.0505 31.8209 62.0505C35.9996 62.0505 40.1374 61.2481 43.9982 59.6889C47.8589 58.1297 51.3668 55.8443 54.3216 52.9635C57.2765 50.0825 59.6203 46.6623 61.2195 42.8981C62.8187 39.1339 63.6418 35.0995 63.6418 31.0251H53.6976C50.4025 31.0251 47.8326 33.7175 46.6256 36.7069C46.5914 36.7921 46.5561 36.8769 46.5202 36.9617C45.7206 38.8437 44.5487 40.5539 43.0712 41.9943C41.5938 43.4347 39.8398 44.5775 37.9095 45.3571C35.9793 46.1367 33.9104 46.5379 31.8209 46.5379C29.7315 46.5379 27.6626 46.1367 25.7323 45.3571C23.8018 44.5775 22.048 43.4347 20.5705 41.9943C19.0931 40.5539 17.9211 38.8437 17.1216 36.9617C16.322 35.0795 15.9104 33.0623 15.9104 31.0251H0Z" fill="url(#paint1_linear_2_62)"/>
<path d="M0.0032959 31.0254C0.0032959 13.8905 14.2499 0 31.824 0C34.5756 0 37.2456 0.340492 39.7922 0.980646C34.3278 2.35314 29.287 5.1307 25.229 9.08714C19.2614 14.9055 15.9089 22.797 15.9089 31.0254H0.0032959Z" fill="#BDB7FF"/>
<defs>
<linearGradient id="paint0_linear_2_62" x1="79.5506" y1="15.5127" x2="15.9088" y2="15.5127" gradientUnits="userSpaceOnUse">
<stop stop-color="#6D67E4" stop-opacity="0.3"/>
<stop offset="1" stop-color="#6D67E4"/>
</linearGradient>
<linearGradient id="paint1_linear_2_62" x1="2.0864e-06" y1="46.5379" x2="63.6418" y2="46.5379" gradientUnits="userSpaceOnUse">
<stop stop-color="#F2F7A1" stop-opacity="0.6"/>
<stop offset="1" stop-color="#CACF79"/>
</linearGradient>
</defs>
</svg>
